:SAMPLES-PER-SECOND 30
:FULLY-SPECIFIED
:DEGREES
1048
root  4.7719 39.4769 5.85939 -179.89 -32.4406 173.134
RightUpLeg  -3.0684 -8.26604 -16.9899
RightLeg  7.94586 18.9603 -0.875878
RightFoot  -3.49115 -0.760565 10.707
RightToes  3.49245e-010 0 -3.6325e-017
Spine  9.09824 0.525143 6.80127
Spine1  8.78662 4.81661 -15.3031
HEad  -14.853 31.3011 -24.8412
LeftShoulder1  -0.32976 4.43703 -29.1897
LeftArm  -14.629 8.29983 -37.7786
LeftForeArm  15.5823 -28.2597 -5.26176
LeftHand  -0.118799 4.05554 9.06674
RightShoulder  -0.513343 -5.04244 26.5378
RightArm  5.41348 -2.06867 48.2854
RightForeArm  7.18399 8.53447 4.41979
RightHand  -0.3862 2.18817 -6.10444
LeftUpLeg  -1.52147 1.2427 -3.10457
LeftLeg  11.6491 -16.6945 -1.03316
LeftFoot  -6.14473 -0.118073 3.42276
LeftToes  -2.21735e-009 9.83027e-011 -4.04511e-011
1049
root  5.17108 39.497 5.39674 -179.733 -34.9707 173.756
RightUpLeg  -2.74097 -10.2502 -16.2348
RightLeg  9.04773 18.1226 0.405275
RightFoot  -4.27464 -0.637296 9.82993
RightToes  3.49245e-010 0 -3.6325e-017
Spine  9.03737 0.444161 8.6868
Spine1  8.63113 4.56228 -13.9923
HEad  -13.0366 32.607 -24.8207
LeftShoulder1  -0.342824 4.48291 -28.8481
LeftArm  -14.5142 9.79989 -38.5956
LeftForeArm  15.367 -26.6813 -4.914
LeftHand  -0.0651495 4.69088 7.92453
RightShoulder  -0.431076 -4.81376 26.0039
RightArm  5.64758 -2.43308 46.9883
RightForeArm  5.32565 10.0988 4.44267
RightHand  -0.4156 2.37444 -6.41181
LeftUpLeg  -2.17725 -1.71663 -1.86232
LeftLeg  12.0893 -16.643 -0.843225
LeftFoot  -6.36332 -0.0646206 2.35799
LeftToes  -2.21735e-009 9.83027e-011 -4.04511e-011
1050
root  5.54989 39.4634 4.93795 -179.517 -38.1122 174.856
RightUpLeg  -2.53408 -11.8675 -14.8647
RightLeg  9.90008 16.2874 1.10442
RightFoot  -5.41583 -0.519153 9.28788
RightToes  3.49245e-010 0 -3.6325e-017
Spine  8.35912 0.387921 10.7734
Spine1  8.33917 4.19769 -12.2376
HEad  -9.88197 31.3377 -23.0715
LeftShoulder1  -0.344505 4.49059 -28.7173
LeftArm  -12.7432 11.0399 -39.0588
LeftForeArm  14.1635 -25.1223 -4.63229
LeftHand  -0.080888 4.40025 7.53102
RightShoulder  -0.429386 -4.80744 26.022
RightArm  7.04012 -2.44656 44.8554
RightForeArm  3.22206 11.6296 4.72438
RightHand  -0.44106 2.56617 -6.64178
LeftUpLeg  -3.94401 -7.17047 0.208434
LeftLeg  13.6051 -14.6395 -1.69062
LeftFoot  -6.97454 -0.00893034 1.33362
LeftToes  -2.21735e-009 9.83027e-011 -4.04511e-011
1051
root  5.90501 39.3894 4.51305 -179.607 -41.5428 175.831
RightUpLeg  -2.26948 -12.7955 -13.612
RightLeg  11.1498 13.6565 1.60542
RightFoot  -6.72755 -0.390015 8.53334
RightToes  3.49245e-010 0 -3.6325e-017
Spine  7.84296 0.212496 12.3906
Spine1  8.27593 3.68262 -10.4091
HEad  -7.69593 31.2138 -21.4457
LeftShoulder1  -0.413606 4.67002 -29.2994
LeftArm  -9.59299 11.977 -38.7787
LeftForeArm  12.8627 -23.6328 -4.39053
LeftHand  -0.0935731 4.17031 7.22087
RightShoulder  -0.472283 -4.92901 26.2978
RightArm  8.42373 -1.70048 42.9364
RightForeArm  2.65316 12.5674 4.94018
RightHand  -0.454224 2.81295 -6.64896
LeftUpLeg  -6.0176 -12.608 2.41981
LeftLeg  15.7608 -11.8754 -2.99278
LeftFoot  -7.39273 0.0206833 0.709281
LeftToes  -2.21735e-009 9.83027e-011 -4.04511e-011
1052
root  6.25208 39.3905 4.1588 -179.434 -45.1454 176.379
RightUpLeg  -1.70085 -13.3696 -12.7031
RightLeg  11.3147 10.5113 1.77743
RightFoot  -7.23513 -0.321203 7.58435
RightToes  3.49245e-010 0 -3.6325e-017
Spine  7.6289 -0.132973 13.9338
Spine1  7.84537 3.27218 -9.98248
HEad  -6.56767 31.426 -19.9438
LeftShoulder1  -0.412506 4.68906 -28.7238
LeftArm  -8.42213 13.3915 -39.5714
LeftForeArm  13.5763 -22.4707 -4.17233
LeftHand  -0.0205236 5.44071 6.02717
RightShoulder  -0.591311 -5.23957 27.2138
RightArm  9.38479 -0.46233 41.3364
RightForeArm  3.68156 12.5001 5.14657
RightHand  -0.44841 3.10131 -6.36031
LeftUpLeg  -8.50698 -13.98 3.78769
LeftLeg  18.139 -10.3249 -3.49925
LeftFoot  -6.2923 0.0757199 -0.847615
LeftToes  -2.21735e-009 9.83027e-011 -4.04511e-011
1053
root  6.54941 39.4371 3.8263 -178.517 -48.2494 175.811
RightUpLeg  -1.26329 -13.6993 -12.5246
RightLeg  11.3246 7.68377 1.71373
RightFoot  -7.54566 -0.279061 6.80695
RightToes  3.49245e-010 0 -3.6325e-017
Spine  7.25076 -0.299523 14.7685
Spine1  8.15236 3.22016 -10.2083
HEad  -6.60411 31.5573 -19.0298
LeftShoulder1  -0.51043 5.00077 -27.9729
LeftArm  -6.85917 14.5142 -40.5241
LeftForeArm  13.7846 -21.4802 -4.18627
LeftHand  0.00141306 5.96499 5.32839
RightShoulder  -0.77123 -5.71443 28.2144
RightArm  10.1979 1.53897 40.3408
RightForeArm  3.50197 11.5211 5.5743
RightHand  -0.443658 2.88503 -6.44431
LeftUpLeg  -10.7772 -10.6035 3.66574
LeftLeg  20.4971 -9.28927 -3.5029
LeftFoot  -4.19487 0.190303 -2.59058
LeftToes  -2.21735e-009 9.83027e-011 -4.04511e-011
1054
root  6.81012 39.4931 3.5076 -176.984 -51.3223 174.669
RightUpLeg  -0.903052 -14.1125 -12.6835
RightLeg  11.114 4.97201 1.62533
RightFoot  -7.89236 -0.254245 6.38216
RightToes  3.49245e-010 0 -3.6325e-017
Spine  7.84866 0.171287 14.8274
Spine1  6.09087 3.26856 -8.95164
HEad  -4.83601 29.9245 -18.2542
LeftShoulder1  -0.341428 4.46268 -29.388
LeftArm  -4.37987 15.8442 -39.9864
LeftForeArm  13.9992 -19.5891 -4.44825
LeftHand  -0.00560956 6.03843 4.82854
RightShoulder  -0.572019 -5.22901 26.4424
RightArm  9.51929 -0.418679 40.2695
RightForeArm  3.17 11.5427 5.33389
RightHand  -0.410178 2.77837 -6.04618
LeftUpLeg  -13.199 -5.74492 2.68161
LeftLeg  22.7056 -7.19211 -2.97434
LeftFoot  -1.39718 0.393319 -4.45153
LeftToes  -2.21735e-009 9.83027e-011 -4.04511e-011
1055
root  7.05811 39.531 3.2199 -175.943 -54.3469 173.807
RightUpLeg  -0.309673 -14.3336 -12.5555
RightLeg  10.9455 2.05799 1.45576
RightFoot  -8.15612 -0.21791 5.85643
RightToes  3.49245e-010 0 -3.6325e-017
Spine  8.26588 0.358657 15.3946
Spine1  5.4654 3.47616 -8.95253
HEad  -4.61942 27.7136 -17.7775
LeftShoulder1  -0.348598 4.4807 -29.5357
LeftArm  -3.42794 16.8971 -40.473
LeftForeArm  14.7484 -18.4174 -4.79311
LeftHand  0.0328198 7.88603 3.19521
RightShoulder  -0.578205 -5.24608 26.4356
RightArm  10.0817 -0.539122 39.6828
RightForeArm  2.5166 11.4373 5.50894
RightHand  -0.387138 2.63682 -5.83241
LeftUpLeg  -15.462 -0.878403 1.57201
LeftLeg  25.072 -4.37666 -1.89646
LeftFoot  1.09223 0.548177 -5.10112
LeftToes  -2.21735e-009 9.83027e-011 -4.04511e-011
1056
root  7.27493 39.5718 2.94517 -174.695 -57.1698 172.666
RightUpLeg  0.212149 -14.5148 -12.5432
RightLeg  10.8971 -0.600016 1.30353
RightFoot  -8.52342 -0.198281 5.70203
RightToes  3.49245e-010 0 -3.6325e-017
Spine  8.82456 0.48054 15.8657
Spine1  4.92914 3.7407 -9.51124
HEad  -4.86801 25.4351 -17.4741
LeftShoulder1  -0.359949 4.50644 -29.7231
LeftArm  -3.77885 17.959 -40.7547
LeftForeArm  16.0947 -17.2475 -5.09773
LeftHand  0.0285747 7.67965 3.32129
RightShoulder  -0.587031 -5.26809 26.5248
RightArm  10.8223 -0.350568 39.4431
RightForeArm  2.66666 11.1666 5.75919
RightHand  -0.377228 3.30036 -5.305
LeftUpLeg  -17.4347 2.27452 0.291846
LeftLeg  26.7213 -0.51855 0.0357524
LeftFoot  1.31051 0.593576 -5.41506
LeftToes  -2.21735e-009 9.83027e-011 -4.04511e-011
1057
root  7.41861 39.6119 2.67341 -173.49 -59.8407 171.64
RightUpLeg  0.784673 -14.5385 -12.3768
RightLeg  10.7412 -3.23252 1.12563
RightFoot  -8.82012 -0.183814 5.62034
RightToes  3.49245e-010 0 -3.6325e-017
Spine  9.21275 0.634266 16.1515
Spine1  4.48324 3.95362 -9.85829
HEad  -4.82106 23.7718 -17.441
LeftShoulder1  -0.406403 4.61916 -30.2861
LeftArm  -4.09255 18.8749 -40.6091
LeftForeArm  17.3207 -15.6419 -5.57698
LeftHand  0.0435709 8.15741 3.47425
RightShoulder  -0.548357 -5.17654 26.0114
RightArm  11.5433 -0.435154 39.9355
RightForeArm  2.41389 11.0839 6.01405
RightHand  -0.422073 2.41228 -6.47175
LeftUpLeg  -19.0153 4.79117 -0.778388
LeftLeg  27.1445 0.652124 0.689761
LeftFoot  0.66942 0.443233 -4.25829
LeftToes  -2.21735e-009 9.83027e-011 -4.04511e-011
1058
root  7.51694 39.6457 2.40463 -171.843 -62.589 170.201
RightUpLeg  1.34015 -14.5919 -12.2877
RightLeg  10.5507 -5.95769 0.949589
RightFoot  -9.09636 -0.169655 5.50007
RightToes  3.49245e-010 0 -3.6325e-017
Spine  8.85563 0.826528 16.1601
Spine1  4.94443 4.18241 -10.2302
HEad  -4.79823 21.8024 -17.3186
LeftShoulder1  -0.31509 4.37148 -30.168
LeftArm  -6.47352 19.5639 -41.2629
LeftForeArm  19.7292 -13.2226 -5.92429
LeftHand  0.0224417 7.75954 3.28051
RightShoulder  -0.536558 -5.12923 26.2242
RightArm  11.9215 0.0549871 40.2124
RightForeArm  2.42801 10.6452 6.24245
RightHand  -0.464391 3.43776 -6.34475
LeftUpLeg  -20.0798 6.48966 -1.8204
LeftLeg  25.6847 -0.246291 0.206976
LeftFoot  0.41668 0.480528 -4.69123
LeftToes  -2.21735e-009 9.83027e-011 -4.04511e-011
1059
root  7.54397 39.7028 2.14065 -170.212 -65.2617 168.527
RightUpLeg  2.45597 -14.4745 -12.2303
RightLeg  9.89974 -8.76643 0.722405
RightFoot  -9.16581 -0.167625 5.5406
RightToes  3.49245e-010 0 -3.6325e-017
Spine  9.19391 0.895916 15.7545
Spine1  4.89469 4.23589 -10.2541
HEad  -4.39095 20.1397 -16.9807
LeftShoulder1  -0.357268 4.47415 -30.6842
LeftArm  -7.33888 20.0293 -40.9559
LeftForeArm  20.858 -11.3597 -6.17164
LeftHand  -0.0159937 8.6862 1.01299
RightShoulder  -0.554805 -5.19193 26.0964
RightArm  11.9372 0.203315 40.8676
RightForeArm  3.72227 10.7892 6.18866
RightHand  -0.398472 2.73295 -5.91378
LeftUpLeg  -20.2476 7.3544 -2.65743
LeftLeg  22.6146 -2.04225 -0.605811
LeftFoot  -0.0163932 0.47114 -4.74789
LeftToes  -2.21735e-009 9.83027e-011 -4.04511e-011
